<svg xmlns="http://www.w3.org/2000/svg" width="200mm" height="200mm" viewBox="0 0 200 200"><g fill="none" stroke="#18202A" stroke-width="0.3" stroke-linecap="round" stroke-linejoin="round" data-pen="outline"><path d="M19.6250 101.3750L25.6350 101.8050L31.6450 102.0750L37.6600 102.0350L42.5200 101.6450"/><path d="M42.8400 98.2750L38.8450 140.3500L68.2450 152.0600"/><path d="M68.2450 152.0600L89.0250 135.4950L93.0200 93.4200"/><path d="M129.3700 128.5350L123.3550 91.5800"/><path d="M105.4950 73.9650L111.5050 110.9200L129.3700 128.5350"/><path d="M129.3700 128.5350L160.6250 118.4700L154.6150 81.5150"/><path d="M163.8850 54.9150L157.8750 54.4850L151.8650 54.2100L145.8550 54.2550L139.8450 54.7350L133.8350 55.7550L127.8200 57.3800L121.8100 59.6250L115.8000 62.4750L109.7900 65.8650L103.7800 69.7000L97.7650 73.8400L91.7550 78.1450L85.7450 82.4500L79.7350 86.5900L78.2500 87.5350"/><path d="M72.2400 109.9850L68.2450 152.0600"/></g><g fill="none" stroke="#A84932" stroke-width="0.4" stroke-linecap="round" stroke-linejoin="round" data-pen="accent"><path d="M136.7500 63.9000L105.4950 73.9650L123.3550 91.5800L154.6150 81.5150L136.7500 63.9000"/><path d="M63.6200 81.7100L42.8400 98.2750L72.2400 109.9850L93.0200 93.4200L63.6200 81.7100"/></g></svg>